<?xml version="1.0" encoding="utf-8"?>
<!-- Generator: Adobe Illustrator 18.0.0, SVG Export Plug-In . SVG Version: 6.00 Build 0)  -->
<!DOCTYPE svg PUBLIC "-//W3C//DTD SVG 1.1//EN" "http://www.w3.org/Graphics/SVG/1.1/DTD/svg11.dtd">
<svg version="1.1" id="Layer_1" xmlns="http://www.w3.org/2000/svg" xmlns:xlink="http://www.w3.org/1999/xlink" x="0px" y="0px"
	 width="128.7px" height="15px" viewBox="0 0 128.7 15" enable-background="new 0 0 128.7 15" xml:space="preserve">
<g>
	<path fill="#FFFFFF" d="M1.8,2.6H8l1,2.8c0.3,0.8,0.5,1.7,0.5,2.4h0.1c0.1-0.9,0.2-1.4,0.5-2.4l1-2.8h6.1v9.8h-3.8V5.2h-0.1
		c-0.1,0.8-0.2,1.3-0.4,2l-1.9,5.2H8L6,7.2c-0.3-0.9-0.4-1.3-0.4-2H5.5v7.2H1.8V2.6z"/>
	<path fill="#FFFFFF" d="M19.7,2.6h3.8v9.8h-3.8V2.6z"/>
	<path fill="#FFFFFF" d="M39.1,8.7c-0.1,1.4-0.6,2.2-1.7,2.9c-1.2,0.8-2.6,1.1-5.1,1.1c-2.4,0-3.8-0.4-5-1.3c-1.2-0.9-1.8-2.3-1.8-4
		c0-1.7,0.6-3,1.7-3.9c1.2-0.9,2.8-1.3,5.1-1.3c2.7,0,4.5,0.5,5.6,1.6c0.6,0.6,0.9,1.3,1.1,2.4h-4.3c-0.3-1.1-1-1.6-2.4-1.6
		c-1.8,0-2.7,0.9-2.7,2.6c0,1.8,1,2.8,2.7,2.8c0.7,0,1.4-0.2,1.7-0.5c0.2-0.2,0.4-0.4,0.6-1H39.1z"/>
	<path fill="#FFFFFF" d="M66.3,3.7c1,0.8,1.5,2.1,1.5,3.8c0,3.6-2.1,5.2-6.6,5.2c-2.5,0-4-0.4-5.2-1.4c-1-0.8-1.5-2.1-1.5-3.9
		c0-1.7,0.5-3,1.5-3.8c1.2-1,2.8-1.4,5.2-1.4C63.6,2.3,65.1,2.7,66.3,3.7z M58.6,7.5c0,1.8,0.9,2.8,2.6,2.8c1.7,0,2.5-0.9,2.5-2.7
		c0-1.8-0.9-2.7-2.5-2.7C59.5,4.8,58.6,5.7,58.6,7.5z"/>
	<path fill="#FFFFFF" d="M83.1,8.7c-0.1,1.4-0.6,2.2-1.7,2.9c-1.2,0.8-2.6,1.1-5.1,1.1c-2.4,0-3.8-0.4-5-1.3c-1.2-0.9-1.8-2.3-1.8-4
		c0-1.7,0.6-3,1.7-3.9c1.2-0.9,2.8-1.3,5.1-1.3c2.7,0,4.5,0.5,5.6,1.6c0.6,0.6,0.9,1.3,1.1,2.4h-4.3c-0.3-1.1-1-1.6-2.4-1.6
		c-1.8,0-2.7,0.9-2.7,2.6c0,1.8,1,2.8,2.7,2.8c0.7,0,1.4-0.2,1.7-0.5c0.2-0.2,0.4-0.4,0.6-1H83.1z"/>
	<path fill="#FFFFFF" d="M96.5,3.7c1,0.8,1.5,2.1,1.5,3.8c0,3.6-2.1,5.2-6.6,5.2c-2.5,0-4-0.4-5.2-1.4c-1-0.8-1.5-2.1-1.5-3.9
		c0-1.7,0.5-3,1.5-3.8c1.2-1,2.8-1.4,5.2-1.4C93.7,2.3,95.3,2.7,96.5,3.7z M88.8,7.5c0,1.8,0.9,2.8,2.6,2.8c1.7,0,2.5-0.9,2.5-2.7
		c0-1.8-0.9-2.7-2.5-2.7C89.7,4.8,88.8,5.7,88.8,7.5z"/>
	<path fill="#FFFFFF" d="M114,2.6h11.1v2.5h-7.4v1.1h6.1v2.5h-6.1v1.2h7.8v2.5H114V2.6z"/>
	<path fill="#FFFFFF" d="M100.1,2.5h7.6c1.4,0,2.4,0.1,3,0.6c0.6,0.5,1,1.3,1,2.2c0,0.8,0,2.3-1.4,3.1l1.6,3.9l0,0h-3.9l0,0
		l-1.1-3.5H104v3.5h-3.9V2.5z M106.6,6.8c0.6,0,0.9,0,1.1-0.2c0.2-0.2,0.4-0.5,0.4-0.8c0-0.7-0.4-0.9-1.5-0.9H104v1.9H106.6z"/>
	<path fill="#FFFFFF" d="M41.1,2.5h7.3c1.3,0,2.3,0.1,2.9,0.6c0.6,0.5,0.9,1.3,0.9,2.2c0,0.8,0,2.3-1.3,3.2l1.5,3.9l0,0h-3.8l0,0
		l-1.1-3.6h-2.7v3.6h-3.8V2.5z M47.4,6.8c0.6,0,0.9,0,1.1-0.2c0.2-0.2,0.4-0.5,0.4-0.8c0-0.7-0.3-1-1.4-1h-2.5v1.9H47.4z"/>
</g>
</svg>
